<?xml version="1.0" encoding="UTF-8"?>
<svg width="512" height="512" viewBox="0 0 512 512" xmlns="http://www.w3.org/2000/svg">
  <!-- 背景 -->
  <rect width="512" height="512" fill="#8B4513" rx="64"/>
  
  <!-- 棋盘网格 -->
  <g stroke="#654321" stroke-width="2" fill="none">
    <!-- 横线 -->
    <line x1="64" y1="96" x2="448" y1="96"/>
    <line x1="64" y1="128" x2="448" y1="128"/>
    <line x1="64" y1="160" x2="448" y1="160"/>
    <line x1="64" y1="192" x2="448" y1="192"/>
    <line x1="64" y1="224" x2="448" y1="224"/>
    <line x1="64" y1="256" x2="448" y1="256"/>
    <line x1="64" y1="288" x2="448" y1="288"/>
    <line x1="64" y1="320" x2="448" y1="320"/>
    <line x1="64" y1="352" x2="448" y1="352"/>
    <line x1="64" y1="384" x2="448" y1="384"/>
    <line x1="64" y1="416" x2="448" y1="416"/>
    
    <!-- 竖线 -->
    <line x1="64" y1="96" x2="64" y2="416"/>
    <line x1="96" y1="96" x2="96" y2="416"/>
    <line x1="128" y1="96" x2="128" y2="416"/>
    <line x1="160" y1="96" x2="160" y2="416"/>
    <line x1="192" y1="96" x2="192" y2="416"/>
    <line x1="224" y1="96" x2="224" y2="416"/>
    <line x1="256" y1="96" x2="256" y2="416"/>
    <line x1="288" y1="96" x2="288" y2="416"/>
    <line x1="320" y1="96" x2="320" y2="416"/>
    <line x1="352" y1="96" x2="352" y2="416"/>
    <line x1="384" y1="96" x2="384" y2="416"/>
    <line x1="416" y1="96" x2="416" y2="416"/>
    <line x1="448" y1="96" x2="448" y2="416"/>
  </g>
  
  <!-- 黑棋 -->
  <circle cx="192" cy="192" r="12" fill="#000000" stroke="#333" stroke-width="1"/>
  <circle cx="256" cy="224" r="12" fill="#000000" stroke="#333" stroke-width="1"/>
  <circle cx="320" cy="256" r="12" fill="#000000" stroke="#333" stroke-width="1"/>
  
  <!-- 白棋 -->
  <circle cx="224" cy="192" r="12" fill="#FFFFFF" stroke="#CCC" stroke-width="1"/>
  <circle cx="288" cy="224" r="12" fill="#FFFFFF" stroke="#CCC" stroke-width="1"/>
  <circle cx="352" cy="288" r="12" fill="#FFFFFF" stroke="#CCC" stroke-width="1"/>
  
  <!-- 标题文字 -->
  <text x="256" y="48" text-anchor="middle" font-family="Arial, sans-serif" font-size="32" font-weight="bold" fill="#FFFFFF">五子棋</text>
  
  <!-- 星位点 -->
  <circle cx="160" cy="160" r="3" fill="#654321"/>
  <circle cx="352" cy="160" r="3" fill="#654321"/>
  <circle cx="256" cy="256" r="3" fill="#654321"/>
  <circle cx="160" cy="352" r="3" fill="#654321"/>
  <circle cx="352" cy="352" r="3" fill="#654321"/>
</svg>